<svg width="30" height="30" viewBox="0 0 30 30" fill="none" xmlns="http://www.w3.org/2000/svg">
<g clip-path="url(#clip0_6850_81096)">
<rect width="30" height="30" rx="10" fill="#1976D2"/>
<path d="M7.41406 8.66992L9.00781 13.9812M16.0166 20.9924L21.3303 22.5862" stroke="white" stroke-width="2" stroke-linecap="round" stroke-linejoin="round"/>
<path d="M14.6035 15.396L21.8023 8.19727" stroke="white" stroke-width="2" stroke-linecap="round" stroke-linejoin="round"/>
<path d="M5 6.875C5 7.12123 5.0485 7.36505 5.14273 7.59253C5.23695 7.82002 5.37506 8.02672 5.54917 8.20083C5.72328 8.37494 5.92998 8.51305 6.15747 8.60727C6.38495 8.7015 6.62877 8.75 6.875 8.75C7.12123 8.75 7.36505 8.7015 7.59253 8.60727C7.82002 8.51305 8.02672 8.37494 8.20083 8.20083C8.37494 8.02672 8.51305 7.82002 8.60727 7.59253C8.7015 7.36505 8.75 7.12123 8.75 6.875C8.75 6.62877 8.7015 6.38495 8.60727 6.15747C8.51305 5.92998 8.37494 5.72328 8.20083 5.54917C8.02672 5.37506 7.82002 5.23695 7.59253 5.14273C7.36505 5.0485 7.12123 5 6.875 5C6.62877 5 6.38495 5.0485 6.15747 5.14273C5.92998 5.23695 5.72328 5.37506 5.54917 5.54917C5.37506 5.72328 5.23695 5.92998 5.14273 6.15747C5.0485 6.38495 5 6.62877 5 6.875Z" stroke="white" stroke-width="2" stroke-linecap="round" stroke-linejoin="round"/>
<path d="M21.25 6.875C21.25 7.37228 21.4475 7.84919 21.7992 8.20083C22.1508 8.55246 22.6277 8.75 23.125 8.75C23.6223 8.75 24.0992 8.55246 24.4508 8.20083C24.8025 7.84919 25 7.37228 25 6.875C25 6.37772 24.8025 5.90081 24.4508 5.54917C24.0992 5.19754 23.6223 5 23.125 5C22.6277 5 22.1508 5.19754 21.7992 5.54917C21.4475 5.90081 21.25 6.37772 21.25 6.875Z" stroke="white" stroke-width="2" stroke-linecap="round" stroke-linejoin="round"/>
<path d="M21.25 23.125C21.25 23.6223 21.4475 24.0992 21.7992 24.4508C22.1508 24.8025 22.6277 25 23.125 25C23.6223 25 24.0992 24.8025 24.4508 24.4508C24.8025 24.0992 25 23.6223 25 23.125C25 22.6277 24.8025 22.1508 24.4508 21.7992C24.0992 21.4475 23.6223 21.25 23.125 21.25C22.6277 21.25 22.1508 21.4475 21.7992 21.7992C21.4475 22.1508 21.25 22.6277 21.25 23.125Z" stroke="white" stroke-width="2" stroke-linecap="round" stroke-linejoin="round"/>
<path d="M5 19.375C5 20.8668 5.59263 22.2976 6.64752 23.3525C7.70242 24.4074 9.13316 25 10.625 25C12.1168 25 13.5476 24.4074 14.6025 23.3525C15.6574 22.2976 16.25 20.8668 16.25 19.375C16.25 17.8832 15.6574 16.4524 14.6025 15.3975C13.5476 14.3426 12.1168 13.75 10.625 13.75C9.13316 13.75 7.70242 14.3426 6.64752 15.3975C5.59263 16.4524 5 17.8832 5 19.375Z" stroke="white" stroke-width="2" stroke-linecap="round" stroke-linejoin="round"/>
</g>
<defs>
<clipPath id="clip0_6850_81096">
<rect width="30" height="30" rx="10" fill="white"/>
</clipPath>
</defs>
</svg>
