<svg width="60" height="61" viewBox="0 0 60 61" fill="none" xmlns="http://www.w3.org/2000/svg">
<g clip-path="url(#clip0_5621_76352)">
<path d="M48.7503 31.68L30.0003 50.25L11.2503 31.68C10.0135 30.4765 9.03937 29.03 8.38913 27.4315C7.7389 25.8331 7.42667 24.1173 7.47211 22.3923C7.51755 20.6672 7.91967 18.9703 8.65316 17.4083C9.38664 15.8463 10.4356 14.4531 11.734 13.3164C13.0324 12.1797 14.552 11.3242 16.1973 10.8037C17.8426 10.2831 19.5778 10.1089 21.2937 10.292C23.0096 10.475 24.669 11.0113 26.1675 11.8672C27.6659 12.7231 28.9709 13.88 30.0003 15.265C31.0341 13.89 32.3406 12.7433 33.838 11.8965C35.3354 11.0497 36.9915 10.5211 38.7026 10.3438C40.4137 10.1664 42.143 10.3442 43.7822 10.8659C45.4214 11.3877 46.9353 12.2421 48.2291 13.3759C49.523 14.5096 50.5688 15.8982 51.3013 17.4547C52.0338 19.0112 52.4371 20.7022 52.486 22.4217C52.535 24.1413 52.2284 25.8524 51.5856 27.4481C50.9428 29.0437 49.9775 30.4895 48.7503 31.695" stroke="#0F1F4B" stroke-width="2" stroke-linecap="round" stroke-linejoin="round"/>
<path d="M29.9996 15.25L21.7671 23.4825C21.2984 23.9513 21.0352 24.5871 21.0352 25.25C21.0352 25.9129 21.2984 26.5487 21.7671 27.0175L23.1246 28.375C24.8496 30.1 27.6496 30.1 29.3746 28.375L31.8746 25.875C33.3665 24.3832 35.3898 23.5451 37.4996 23.5451C39.6094 23.5451 41.6328 24.3832 43.1246 25.875L48.7496 31.5" stroke="#0F1F4B" stroke-width="2" stroke-linecap="round" stroke-linejoin="round"/>
<path d="M31.25 39L36.25 44" stroke="#0F1F4B" stroke-width="2" stroke-linecap="round" stroke-linejoin="round"/>
<path d="M37.5 32.75L42.5 37.75" stroke="#0F1F4B" stroke-width="2" stroke-linecap="round" stroke-linejoin="round"/>
</g>
<defs>
<clipPath id="clip0_5621_76352">
<rect width="60" height="60" fill="white" transform="translate(0 0.25)"/>
</clipPath>
</defs>
</svg>
