<svg width="165" height="55" viewBox="0 0 165 55" fill="none" xmlns="http://www.w3.org/2000/svg">
<g clip-path="url(#clip0_6833_81107)">
<path d="M10.417 6.66699H20.8337V15.0003H10.417V6.66699Z" stroke="white" stroke-width="2.5" stroke-linecap="round" stroke-linejoin="round"/>
<path d="M31.25 23.333H41.6667V31.6663H31.25V23.333Z" stroke="white" stroke-width="2.5" stroke-linecap="round" stroke-linejoin="round"/>
<path d="M10.417 40H20.8337V48.3333H10.417V40Z" stroke="white" stroke-width="2.5" stroke-linecap="round" stroke-linejoin="round"/>
<path d="M10.417 23.333H20.8337V31.6663H10.417V23.333Z" stroke="white" stroke-width="2.5" stroke-linecap="round" stroke-linejoin="round"/>
<path d="M20.833 27.5H31.2497" stroke="white" stroke-width="2.5" stroke-linecap="round" stroke-linejoin="round"/>
<path d="M15.625 15V23.3333" stroke="white" stroke-width="2.5" stroke-linecap="round" stroke-linejoin="round"/>
<path d="M15.625 31.667V40.0003" stroke="white" stroke-width="2.5" stroke-linecap="round" stroke-linejoin="round"/>
</g>
<path d="M52.8 43V14.2H63.92C65.5333 14.2 66.94 14.5333 68.14 15.2C69.34 15.8667 70.2733 16.7667 70.94 17.9C71.6067 19.02 71.94 20.26 71.94 21.62C71.94 23.1667 71.5267 24.5467 70.7 25.76C69.8733 26.96 68.7667 27.7933 67.38 28.26L67.34 27.28C69.2067 27.8133 70.6733 28.7467 71.74 30.08C72.8067 31.4133 73.34 33.0267 73.34 34.92C73.34 36.5867 72.9867 38.0267 72.28 39.24C71.5733 40.44 70.58 41.3667 69.3 42.02C68.02 42.6733 66.5333 43 64.84 43H52.8ZM55.76 40.18H64.12C65.2933 40.18 66.3467 39.9733 67.28 39.56C68.2133 39.1333 68.9467 38.5333 69.48 37.76C70.0267 36.9867 70.3 36.0533 70.3 34.96C70.3 33.8933 70.0533 32.9333 69.56 32.08C69.0667 31.2267 68.3933 30.5467 67.54 30.04C66.7 29.52 65.74 29.26 64.66 29.26H55.76V40.18ZM55.76 26.48H63.9C64.82 26.48 65.66 26.2733 66.42 25.86C67.18 25.4333 67.78 24.8533 68.22 24.12C68.6733 23.3867 68.9 22.54 68.9 21.58C68.9 20.22 68.4267 19.1133 67.48 18.26C66.5467 17.4067 65.3533 16.98 63.9 16.98H55.76V26.48ZM77.3313 43V14.2H88.4513C88.7313 14.2 89.0446 14.2133 89.3913 14.24C89.7513 14.2533 90.1113 14.2933 90.4713 14.36C91.9779 14.5867 93.2513 15.1133 94.2913 15.94C95.3446 16.7533 96.1379 17.78 96.6712 19.02C97.2179 20.26 97.4913 21.6333 97.4913 23.14C97.4913 24.6333 97.2179 26 96.6712 27.24C96.1246 28.48 95.3246 29.5133 94.2713 30.34C93.2313 31.1533 91.9646 31.6733 90.4713 31.9C90.1113 31.9533 89.7513 31.9933 89.3913 32.02C89.0446 32.0467 88.7313 32.06 88.4513 32.06H80.2713V43H77.3313ZM80.2713 29.26H88.3713C88.6113 29.26 88.8913 29.2467 89.2113 29.22C89.5313 29.1933 89.8446 29.1467 90.1513 29.08C91.1379 28.8667 91.9446 28.46 92.5713 27.86C93.2113 27.26 93.6846 26.5467 93.9913 25.72C94.3113 24.8933 94.4713 24.0333 94.4713 23.14C94.4713 22.2467 94.3113 21.3867 93.9913 20.56C93.6846 19.72 93.2113 19 92.5713 18.4C91.9446 17.8 91.1379 17.3933 90.1513 17.18C89.8446 17.1133 89.5313 17.0733 89.2113 17.06C88.8913 17.0333 88.6113 17.02 88.3713 17.02H80.2713V29.26ZM111.472 43.6C109.459 43.6 107.645 43.2667 106.032 42.6C104.432 41.92 103.105 40.96 102.052 39.72C101.012 38.48 100.332 37.0067 100.012 35.3L103.012 34.8C103.492 36.6667 104.505 38.1333 106.052 39.2C107.599 40.2533 109.445 40.78 111.592 40.78C113.005 40.78 114.272 40.56 115.392 40.12C116.512 39.6667 117.392 39.0267 118.032 38.2C118.672 37.3733 118.992 36.3933 118.992 35.26C118.992 34.5133 118.859 33.88 118.592 33.36C118.325 32.8267 117.972 32.3867 117.532 32.04C117.092 31.6933 116.612 31.4067 116.092 31.18C115.572 30.94 115.065 30.7467 114.572 30.6L107.272 28.42C106.392 28.1667 105.579 27.8467 104.832 27.46C104.085 27.06 103.432 26.5867 102.872 26.04C102.325 25.48 101.899 24.8267 101.592 24.08C101.285 23.3333 101.132 22.48 101.132 21.52C101.132 19.8933 101.559 18.4867 102.412 17.3C103.265 16.1133 104.432 15.2 105.912 14.56C107.392 13.92 109.079 13.6067 110.972 13.62C112.892 13.62 114.605 13.96 116.112 14.64C117.632 15.32 118.885 16.2933 119.872 17.56C120.859 18.8133 121.512 20.3 121.832 22.02L118.752 22.58C118.552 21.3267 118.092 20.24 117.372 19.32C116.652 18.4 115.732 17.6933 114.612 17.2C113.505 16.6933 112.285 16.4333 110.952 16.42C109.659 16.42 108.505 16.64 107.492 17.08C106.492 17.5067 105.699 18.0933 105.112 18.84C104.525 19.5867 104.232 20.44 104.232 21.4C104.232 22.3733 104.499 23.1533 105.032 23.74C105.579 24.3267 106.245 24.7867 107.032 25.12C107.832 25.4533 108.605 25.7267 109.352 25.94L114.992 27.6C115.579 27.76 116.265 27.9933 117.052 28.3C117.852 28.5933 118.625 29.02 119.372 29.58C120.132 30.1267 120.759 30.8467 121.252 31.74C121.745 32.6333 121.992 33.7667 121.992 35.14C121.992 36.4733 121.725 37.6667 121.192 38.72C120.672 39.7733 119.932 40.66 118.972 41.38C118.025 42.1 116.912 42.6467 115.632 43.02C114.365 43.4067 112.979 43.6 111.472 43.6ZM126.1 43L126.12 14.2H129.08V31.8L138.72 21.4H142.64L132.52 32.2L143.96 43H139.68L129.08 32.6V43H126.1ZM149.044 52.6L153.224 41.26L153.284 44.62L143.824 21.4H146.944L154.704 40.82H153.424L160.584 21.4H163.584L151.984 52.6H149.044Z" fill="white"/>
<defs>
<clipPath id="clip0_6833_81107">
<rect width="50" height="50" fill="white" transform="translate(0 2.5)"/>
</clipPath>
</defs>
</svg>
