<svg width="60" height="60" viewBox="0 0 60 60" fill="none" xmlns="http://www.w3.org/2000/svg">
<g clip-path="url(#clip0_5621_76358)">
<path d="M10 32.5C14.4577 33.0298 18.6076 35.0438 21.7819 38.2181C24.9562 41.3924 26.9702 45.5423 27.5 50C29.7098 48.726 31.5582 46.9096 32.8706 44.7223C34.1829 42.5351 34.9158 40.0493 35 37.5C39.1978 36.0233 42.8634 33.335 45.5334 29.775C48.2033 26.2151 49.7577 21.9433 50 17.5C50 15.5109 49.2098 13.6032 47.8033 12.1967C46.3968 10.7902 44.4891 10 42.5 10C38.0567 10.2423 33.7849 11.7967 30.225 14.4666C26.665 17.1366 23.9767 20.8022 22.5 25C19.9507 25.0842 17.4649 25.8171 15.2777 27.1294C13.0904 28.4418 11.274 30.2902 10 32.5" stroke="#0F1F4B" stroke-width="2" stroke-linecap="round" stroke-linejoin="round"/>
<path d="M17.4997 35C14.8978 36.4689 12.7939 38.6815 11.4576 41.3539C10.1214 44.0264 9.61373 47.0371 9.99974 50C12.9626 50.386 15.9733 49.8784 18.6458 48.5421C21.3183 47.2059 23.5308 45.1019 24.9997 42.5" stroke="#0F1F4B" stroke-width="2" stroke-linecap="round" stroke-linejoin="round"/>
<path d="M37.5 25C38.8807 25 40 23.8807 40 22.5C40 21.1193 38.8807 20 37.5 20C36.1193 20 35 21.1193 35 22.5C35 23.8807 36.1193 25 37.5 25Z" stroke="#0F1F4B" stroke-width="2" stroke-linecap="round" stroke-linejoin="round"/>
</g>
<defs>
<clipPath id="clip0_5621_76358">
<rect width="60" height="60" fill="white"/>
</clipPath>
</defs>
</svg>
